<svg width="194" height="61" viewBox="0 0 194 61" fill="none" xmlns="http://www.w3.org/2000/svg">
<path d="M55.7455 42.8779C55.4405 42.1406 55.1545 41.3654 54.8494 40.7037L53.4386 37.5463L53.3814 37.4896C49.1871 28.4146 44.7068 19.1884 39.9596 10.1134L39.7689 9.73524C39.2923 8.84665 38.8157 7.86352 38.32 6.95602C37.7099 5.87837 37.1189 4.72508 36.1466 3.62852C35.1988 2.48116 34.006 1.55675 32.6542 0.922007C31.3025 0.287261 29.8255 -0.0419922 28.3299 -0.0419922C26.8342 -0.0419922 25.3572 0.287261 24.0055 0.922007C22.6537 1.55675 21.4609 2.48116 20.5132 3.62852C19.6171 4.72508 18.9498 5.87837 18.3397 6.95602C17.8631 7.93915 17.3865 8.90337 16.8908 9.79196L16.7001 10.1701C12.0292 19.2451 7.47261 28.4713 3.27828 37.5463L3.16389 37.6598C2.74446 38.6429 2.24877 39.6638 1.77214 40.7604C1.4671 41.4221 1.16205 42.1406 0.857011 42.9346C0.0334598 45.0139 -0.229526 47.2701 0.0939718 49.4809C0.41747 51.6917 1.31629 53.7807 2.70184 55.5421C4.08739 57.3035 5.91185 58.6764 7.99542 59.5257C10.079 60.3749 12.3497 60.6711 14.5839 60.3851C16.7258 60.1055 18.7883 59.398 20.6466 58.3054C23.1251 56.9252 25.5082 54.9212 28.1773 52.0285C30.8465 54.9212 33.2868 56.9252 35.7081 58.3243C38.0365 59.6796 40.6733 60.4276 43.3722 60.4985C46.4977 60.5114 49.5223 59.4025 51.8876 57.3766C54.253 55.3506 55.7993 52.5445 56.2412 49.4762C56.7518 47.2713 56.5791 44.9649 55.7455 42.859V42.8779ZM28.368 46.0163C25.0888 41.857 22.9535 38.0379 22.229 34.7671C21.9289 33.5551 21.8642 32.2975 22.0384 31.0615C22.1718 30.0973 22.5341 29.2465 23.0298 28.5281C24.1737 26.8832 26.1755 25.8623 28.368 25.8623C29.4092 25.8307 30.442 26.0561 31.3737 26.518C32.3055 26.98 33.1069 27.6642 33.7062 28.5091C34.2019 29.2654 34.5642 30.0973 34.6785 31.0615C34.8692 32.1581 34.7929 33.4248 34.4879 34.7671C33.7634 37.9812 31.6281 41.8381 28.368 46.0163ZM52.657 48.8145C52.4403 50.3722 51.8159 51.8465 50.8458 53.0905C49.8758 54.3344 48.5939 55.3046 47.1281 55.9043C45.6791 56.5093 44.0776 56.6795 42.5143 56.5093C40.9891 56.3202 39.4639 55.8287 37.9006 54.9212C35.3048 53.3302 32.9708 51.3535 30.9799 49.0602C34.9836 44.1446 37.4049 39.6638 38.32 35.6746C38.7585 33.784 38.8157 32.0824 38.625 30.5132C38.387 29.0258 37.8277 27.607 36.9854 26.3538C36.0238 24.995 34.7402 23.8912 33.2476 23.1395C31.7549 22.3879 30.0989 22.0114 28.4252 22.0432C24.8981 22.0432 21.7524 23.6691 19.8459 26.3349C18.9876 27.5849 18.433 29.0151 18.2253 30.5132C17.9775 32.1013 18.0347 33.8596 18.5304 35.6746C19.4455 39.6638 21.924 44.2013 25.8705 49.0981C23.9134 51.4352 21.5739 53.4292 18.9498 54.9968C17.3674 55.9043 15.8613 56.377 14.3361 56.566C11.9641 56.8673 9.56815 56.228 7.66891 54.7872C5.76966 53.3463 4.52067 51.2202 4.19341 48.8712C4.00276 47.3587 4.13621 45.8462 4.7463 44.1446C4.93695 43.5396 5.22292 42.9346 5.52797 42.2162C5.9474 41.2331 6.44309 40.2121 6.91972 39.1912L6.99598 39.0588C11.114 30.0406 15.6134 20.8332 20.2844 11.8149L20.475 11.4368C20.9517 10.5293 21.4283 9.56508 21.924 8.65758C22.4197 7.69337 22.9535 6.76696 23.6398 6.01071C24.2339 5.30744 24.9763 4.74186 25.8146 4.3538C26.6529 3.96574 27.5668 3.76463 28.4919 3.76463C29.4171 3.76463 30.3309 3.96574 31.1693 4.3538C32.0076 4.74186 32.7499 5.30744 33.344 6.01071C34.0113 6.76696 34.5642 7.69337 35.0598 8.65758C35.5365 9.56508 36.0131 10.5482 36.5088 11.4368L36.6994 11.8149C41.3513 20.8332 45.8507 30.0406 50.045 39.0588L50.1022 39.1156C50.5979 40.0987 51.0174 41.1952 51.494 42.1406C51.799 42.8779 52.1041 43.464 52.2947 44.0879C52.657 45.7895 52.8476 47.302 52.657 48.8145ZM79.1956 45.6004C77.759 45.6212 76.3361 45.3211 75.0324 44.7221C73.7287 44.1232 72.5777 43.2408 71.6649 42.1406C69.6136 39.7961 68.5249 36.7732 68.6145 33.6706C68.5831 30.5004 69.7069 27.4255 71.7793 25.0115C72.7379 23.8972 73.9311 23.0048 75.2751 22.3973C76.619 21.7897 78.0809 21.4817 79.5578 21.4949C80.9476 21.4572 82.3241 21.7706 83.5581 22.4056C84.7921 23.0406 85.843 23.9764 86.6119 25.1249L86.8026 22.1566H92.3696V44.9954H86.7835L86.5929 41.6679C85.8001 42.8943 84.7043 43.8993 83.4097 44.5876C82.115 45.2759 80.6644 45.6245 79.1956 45.6004ZM80.6446 40.1554C81.7503 40.1554 82.7227 39.8529 83.6378 39.3046C84.4766 38.6996 85.163 37.9056 85.6968 36.9413C86.1734 35.9771 86.4213 34.8238 86.4213 33.5382C86.4956 32.4216 86.2764 31.305 85.7852 30.2975C85.2939 29.2901 84.5475 28.4263 83.6187 27.7907C82.7263 27.2393 81.696 26.9471 80.6446 26.9471C79.5931 26.9471 78.5628 27.2393 77.6704 27.7907C76.8315 28.3957 76.1452 29.1898 75.6114 30.154C75.1072 31.2174 74.8592 32.3824 74.8869 33.5571C74.8126 34.6737 75.0317 35.7904 75.523 36.7978C76.0142 37.8052 76.7607 38.669 77.6895 39.3046C78.5855 39.8529 79.5578 40.1554 80.6446 40.1554ZM101.902 15.9932C101.902 16.6549 101.788 17.2599 101.483 17.7515C101.178 18.2241 100.758 18.659 100.205 18.9615C99.6525 19.264 99.0615 19.3774 98.4514 19.3774C97.8413 19.3774 97.2312 19.264 96.6783 18.9615C96.1554 18.6728 95.7157 18.2563 95.401 17.7515C95.1057 17.2129 94.9609 16.6059 94.9815 15.9932C94.9815 15.3126 95.115 14.7076 95.401 14.2349C95.706 13.6677 96.1445 13.3274 96.6783 13.0249C97.2312 12.7224 97.8222 12.5901 98.4514 12.5901C99.0582 12.5762 99.6583 12.7187 100.193 13.0037C100.728 13.2887 101.179 13.7064 101.502 14.216C101.779 14.7672 101.917 15.3773 101.902 15.9932ZM95.42 44.9198V22.1188H101.483V44.9576H95.401L95.42 44.9198ZM117.688 28.0932V28.1688C117.402 28.0365 117.021 27.9798 116.735 27.9231C116.354 27.8474 116.048 27.8474 115.686 27.8474C113.989 27.8474 112.712 28.339 111.873 29.3599C110.958 30.3998 110.539 31.8556 110.539 33.7273V44.9387H104.457V22.0999H110.043L110.234 25.5598C110.844 24.3498 111.568 23.4423 112.598 22.7616C113.622 22.1003 114.827 21.7701 116.048 21.8163C116.487 21.8163 116.906 21.8541 117.269 21.9298C117.459 21.9865 117.574 21.9865 117.688 22.0432V28.0932ZM120.128 44.9198V12.7413H126.191V25.0304C127.049 23.9338 128.021 23.0831 129.242 22.4213C131.173 21.4821 133.368 21.2157 135.471 21.6651C137.574 22.1144 139.463 23.2533 140.833 24.8981C142.889 27.2474 143.978 30.2778 143.884 33.387C143.915 36.5571 142.791 39.632 140.719 42.046C139.76 43.1603 138.567 44.0527 137.223 44.6602C135.879 45.2678 134.417 45.5758 132.94 45.5626C131.55 45.6003 130.174 45.2869 128.94 44.6519C127.706 44.0169 126.655 43.0812 125.886 41.9326L125.695 44.9009L120.128 44.9576V44.9198ZM131.854 40.1554C132.94 40.1554 133.913 39.8529 134.828 39.3046C135.667 38.6996 136.353 37.9056 136.887 36.9413C137.382 35.9771 137.611 34.8238 137.611 33.5382C137.611 32.2715 137.382 31.1182 136.887 30.154C136.386 29.2242 135.683 28.4169 134.828 27.7907C133.935 27.2393 132.905 26.9471 131.854 26.9471C130.802 26.9471 129.772 27.2393 128.879 27.7907C128.021 28.3957 127.354 29.1898 126.801 30.154C126.297 31.2174 126.049 32.3824 126.077 33.5571C126.002 34.6737 126.222 35.7904 126.713 36.7978C127.204 37.8052 127.951 38.669 128.879 39.3046C129.775 39.8529 130.748 40.1554 131.854 40.1554ZM146.171 44.9387V22.0999H151.757L151.948 25.0682C152.65 23.9304 153.646 22.9992 154.832 22.371C156.019 21.7428 157.353 21.4403 158.697 21.4949C160.234 21.4686 161.745 21.8922 163.04 22.7127C164.335 23.5332 165.358 24.7142 165.98 26.1081C166.647 27.5449 167.01 29.3221 167.01 31.3073V44.9954H160.928V32.1013C160.928 30.5132 160.566 29.2654 159.841 28.339C159.117 27.4315 158.125 26.9399 156.867 26.9399C155.952 26.9399 155.151 27.129 154.446 27.5449C153.778 27.9798 153.225 28.5281 152.806 29.3032C152.382 30.0868 152.172 30.9666 152.196 31.8556V44.9387H146.171ZM170.041 44.9387V12.7224H176.123V25.0115C176.946 23.9088 178.018 23.0117 179.253 22.3915C180.487 21.7712 181.85 21.4448 183.234 21.4382C184.671 21.4174 186.094 21.7176 187.397 22.3165C188.701 22.9154 189.852 23.7978 190.765 24.8981C192.806 27.2472 193.887 30.2685 193.796 33.3681C193.829 36.5385 192.705 39.6139 190.631 42.0271C189.673 43.1414 188.479 44.0338 187.135 44.6413C185.792 45.2489 184.33 45.5569 182.853 45.5437C181.463 45.5814 180.086 45.268 178.852 44.633C177.618 43.998 176.568 43.0622 175.799 41.9137L175.627 44.882L170.041 44.9387ZM181.823 40.1554C182.929 40.1554 183.901 39.8529 184.797 39.3046C185.655 38.6996 186.323 37.9056 186.875 36.9413C187.352 35.9771 187.6 34.8238 187.6 33.5382C187.674 32.4216 187.455 31.305 186.964 30.2975C186.473 29.2901 185.726 28.4263 184.797 27.7907C183.905 27.2393 182.875 26.9471 181.823 26.9471C180.772 26.9471 179.741 27.2393 178.849 27.7907C178.01 28.3957 177.324 29.1898 176.79 30.154C176.258 31.2079 176.008 32.3799 176.066 33.5571C175.991 34.6737 176.21 35.7904 176.702 36.7978C177.193 37.8052 177.939 38.669 178.868 39.3046C179.764 39.8529 180.679 40.1554 181.823 40.1554Z" fill="#FF385C"/>
</svg>
